<svg width="84" height="79" viewBox="0 0 84 79" fill="none" xmlns="http://www.w3.org/2000/svg">
<path d="M2.95265 5.64563H81.0472V58.1575H2.95265V5.64563Z" fill="url(#paint0_linear)"/>
<path d="M15.0708 12.3778H81.0472V5.64563H2.95265V58.1575H6.99197V20.4566C6.99214 15.9949 10.609 12.3778 15.0708 12.3778Z" fill="url(#paint1_linear)"/>
<path d="M82.3938 56.8112H1.6062C0.862605 56.8112 0.259766 57.414 0.259766 58.1576V60.8505C0.259766 61.5941 0.862605 62.1969 1.6062 62.1969H82.3938C83.1374 62.1969 83.7402 61.5941 83.7402 60.8505V58.1576C83.7402 57.4138 83.1374 56.8112 82.3938 56.8112Z" fill="#DAE6FF"/>
<path d="M82.3938 0.259766H1.6062C0.862605 0.259766 0.259766 0.862606 0.259766 1.6062V6.99212H83.7402V1.6062C83.7402 0.862606 83.1374 0.259766 82.3938 0.259766Z" fill="#DAE6FF"/>
<path d="M42 78.3544C43.4872 78.3544 44.6929 77.1487 44.6929 75.6615C44.6929 74.1743 43.4872 72.9686 42 72.9686C40.5128 72.9686 39.3071 74.1743 39.3071 75.6615C39.3071 77.1487 40.5128 78.3544 42 78.3544Z" fill="#DAE6FF"/>
<path d="M53.1622 29.3712L36.0988 20.8395C33.7173 19.6488 30.9153 21.3806 30.9153 24.0432V41.1066C30.9153 43.7693 33.7173 45.501 36.0988 44.3103L53.1622 35.7785C55.802 34.4586 55.802 30.6912 53.1622 29.3712Z" fill="#DAE6FF"/>
<path d="M6.3189 4.29925C5.20342 4.29925 4.29925 3.39507 4.29925 2.27959V0.259766H1.6062C0.862605 0.259766 0.259766 0.862606 0.259766 1.6062V6.99212C0.259766 7.73572 0.862605 8.33856 1.6062 8.33856H82.3938C83.1374 8.33856 83.7402 7.73572 83.7402 6.99212V4.29925H6.3189Z" fill="#DAD8DB"/>
<path d="M39.3186 37.2688C37.3748 37.2688 35.2771 35.7218 35.2771 33.2224V20.5552C33.1175 20.0641 30.9151 21.682 30.9151 24.0429V41.1064C30.9151 43.769 33.7171 45.5008 36.0988 44.31L53.1622 35.7782C55.3467 34.6861 55.6943 31.9353 54.2636 30.2648L41.1227 36.8353C40.5478 37.123 39.9407 37.2688 39.3186 37.2688Z" fill="#DAE6FF"/>
<defs>
<linearGradient id="paint0_linear" x1="7.1465" y1="31.9164" x2="80.9688" y2="31.9165" gradientUnits="userSpaceOnUse">
<stop stop-color="#1D72D8"/>
<stop offset="1" stop-color="#23286B"/>
</linearGradient>
<linearGradient id="paint1_linear" x1="3.03127" y1="29.9848" x2="80.9688" y2="31.9164" gradientUnits="userSpaceOnUse">
<stop stop-color="#1D72D8"/>
<stop offset="1" stop-color="#23286B"/>
</linearGradient>
</defs>
</svg>
