<svg width="86" height="86" viewBox="0 0 86 86" fill="none" xmlns="http://www.w3.org/2000/svg">
<path d="M73.6985 68.979H12.3017C10.8253 68.979 9.50307 68.076 8.96557 66.7L2.75207 50.8188C2.28982 49.6435 3.15341 48.375 4.41832 48.375H81.5854C82.8467 48.375 83.7139 49.6435 83.2552 50.8188L77.0417 66.7C76.5007 68.076 75.1748 68.979 73.6985 68.979Z" fill="#DAE6FF"/>
<path d="M42.9995 25.9792C36.5782 25.9792 31.3538 20.7547 31.3538 14.3333C31.3538 7.912 36.5782 2.6875 42.9995 2.6875C49.4208 2.6875 54.6453 7.912 54.6453 14.3333C54.6453 20.7547 49.4208 25.9792 42.9995 25.9792Z" fill="url(#paint0_linear)"/>
<path d="M57.3334 85.999H28.6668L24.5495 62.1163C24.3596 61.0198 25.2053 60.02 26.3161 60.02H59.6877C60.7985 60.02 61.6406 61.0198 61.4543 62.1163L57.3334 85.999Z" fill="#DAE6FF"/>
<path d="M69.875 48.375H16.125C16.125 40.9539 22.1414 34.9375 29.5625 34.9375H56.4375C63.8586 34.9375 69.875 40.9539 69.875 48.375Z" fill="url(#paint1_linear)"/>
<path d="M80.6247 51.0618C79.1412 51.0618 77.9372 49.8578 77.9372 48.3743C77.9372 41.2829 74.1461 34.5713 68.0437 30.8554C66.7752 30.0814 66.3739 28.4295 67.1479 27.161C67.9219 25.8925 69.5738 25.4912 70.8423 26.2652C78.532 30.9522 83.3085 39.4232 83.3085 48.3743C83.3121 49.8578 82.1081 51.0618 80.6247 51.0618Z" fill="#1D72D8"/>
<path d="M66.2919 32.25C69.2604 32.25 71.6669 29.8435 71.6669 26.875C71.6669 23.9065 69.2604 21.5 66.2919 21.5C63.3234 21.5 60.9169 23.9065 60.9169 26.875C60.9169 29.8435 63.3234 32.25 66.2919 32.25Z" fill="#1D72D8"/>
<defs>
<linearGradient id="paint0_linear" x1="31.4098" y1="14.2773" x2="54.5893" y2="14.2773" gradientUnits="userSpaceOnUse">
<stop stop-color="#1D72D8"/>
<stop offset="1" stop-color="#23286B"/>
</linearGradient>
<linearGradient id="paint1_linear" x1="21.5" y1="41.6563" x2="65.5078" y2="41.6563" gradientUnits="userSpaceOnUse">
<stop stop-color="#2196F3"/>
<stop offset="1" stop-color="#23286B"/>
</linearGradient>
</defs>
</svg>
