<svg width="30" height="30" viewBox="0 0 30 30" fill="none" xmlns="http://www.w3.org/2000/svg">
<g clip-path="url(#clip0)">
<path d="M29.3752 8.13385C29.2053 7.52788 28.8744 6.97928 28.4177 6.54634C27.948 6.1001 27.3724 5.78089 26.7452 5.61884C24.3977 5.00009 14.9927 5.0001 14.9927 5.0001C11.0718 4.95549 7.15195 5.15169 3.25516 5.58759C2.6279 5.76161 2.05337 6.08795 1.58266 6.5376C1.12016 6.9826 0.785161 7.53135 0.610161 8.1326C0.189777 10.3973 -0.0144738 12.6968 0.000161127 15.0001C-0.0148389 17.3013 0.188911 19.6001 0.610161 21.8676C0.781411 22.4663 1.11516 23.0126 1.57891 23.4538C2.04266 23.8951 2.62016 24.2138 3.25516 24.3826C5.63391 25.0001 14.9927 25.0001 14.9927 25.0001C18.9185 25.0448 22.8434 24.8486 26.7452 24.4126C27.3724 24.2506 27.948 23.9313 28.4177 23.4851C28.8802 23.0438 29.2089 22.4951 29.3739 21.8976C29.8053 19.6338 30.015 17.3333 30.0002 15.0288C30.0326 12.7146 29.8231 10.4033 29.3752 8.1326V8.13385ZM12.0027 19.2801V10.7213L19.8277 15.0013L12.0027 19.2801Z" fill="white"/>
</g>
<defs>
<clipPath id="clip0">
<rect width="30" height="30" fill="white"/>
</clipPath>
</defs>
</svg>
