<svg width="30" height="30" viewBox="0 0 30 30" fill="none" xmlns="http://www.w3.org/2000/svg">
<path d="M29.5537 6.17122C28.51 6.63372 27.3888 6.94622 26.21 7.08747C27.4263 6.35971 28.3362 5.21431 28.77 3.86497C27.6273 4.54371 26.3767 5.02147 25.0725 5.27747C24.1955 4.34106 23.0338 3.72038 21.7679 3.51182C20.502 3.30325 19.2026 3.51846 18.0715 4.12404C16.9405 4.72962 16.041 5.69168 15.5127 6.86085C14.9844 8.03003 14.8569 9.34091 15.15 10.59C12.8346 10.4737 10.5695 9.87191 8.50178 8.82361C6.43403 7.7753 4.6098 6.30393 3.1475 4.50497C2.6475 5.36747 2.36 6.36747 2.36 7.43247C2.35944 8.39122 2.59554 9.33528 3.04735 10.1809C3.49916 11.0265 4.1527 11.7475 4.95 12.28C4.02534 12.2506 3.12109 12.0007 2.3125 11.5512V11.6262C2.31241 12.9709 2.77754 14.2742 3.62898 15.315C4.48042 16.3557 5.66571 17.0699 6.98375 17.3362C6.12598 17.5684 5.22667 17.6026 4.35375 17.4362C4.72562 18.5932 5.44999 19.605 6.42546 20.3299C7.40092 21.0548 8.57865 21.4564 9.79375 21.4787C7.73104 23.098 5.18361 23.9763 2.56125 23.9725C2.09673 23.9726 1.63259 23.9455 1.17125 23.8912C3.83309 25.6027 6.93167 26.511 10.0962 26.5075C20.8087 26.5075 26.665 17.635 26.665 9.93997C26.665 9.68997 26.6588 9.43747 26.6475 9.18747C27.7866 8.36369 28.7699 7.34359 29.5513 6.17497L29.5537 6.17122Z" fill="white"/>
</svg>
