<svg width="134" height="42" viewBox="0 0 134 42" fill="none" xmlns="http://www.w3.org/2000/svg">
<path d="M45.664 34V8.44H50.632V34H45.664ZM58.0168 21.04C58.0168 19.48 58.2928 17.944 58.8448 16.432C59.4208 14.92 60.2488 13.552 61.3288 12.328C62.4088 11.104 63.7288 10.132 65.2888 9.412C66.8488 8.668 68.6248 8.296 70.6168 8.296C72.9448 8.296 74.9728 8.812 76.7008 9.844C78.4288 10.876 79.7128 12.22 80.5528 13.876L76.7368 16.504C76.3048 15.544 75.7408 14.788 75.0448 14.236C74.3488 13.684 73.5928 13.288 72.7768 13.048C71.9848 12.808 71.2168 12.688 70.4728 12.688C69.2248 12.688 68.1328 12.94 67.1968 13.444C66.2848 13.948 65.5168 14.608 64.8928 15.424C64.2688 16.24 63.8008 17.152 63.4888 18.16C63.2008 19.168 63.0568 20.176 63.0568 21.184C63.0568 22.696 63.3688 24.112 63.9928 25.432C64.6168 26.728 65.4928 27.784 66.6208 28.6C67.7488 29.416 69.0568 29.824 70.5448 29.824C71.3128 29.824 72.1048 29.692 72.9208 29.428C73.7608 29.164 74.5288 28.744 75.2248 28.168C75.9208 27.592 76.4608 26.848 76.8448 25.936L80.9128 28.276C80.3848 29.548 79.5568 30.628 78.4288 31.516C77.3008 32.38 76.0288 33.052 74.6128 33.532C73.1968 33.988 71.7928 34.216 70.4008 34.216C68.5768 34.216 66.9088 33.844 65.3968 33.1C63.9088 32.332 62.6128 31.324 61.5088 30.076C60.4048 28.804 59.5408 27.388 58.9168 25.828C58.3168 24.244 58.0168 22.648 58.0168 21.04ZM94.4409 8.44H99.4809L108.877 34H103.765L101.389 27.628H92.4609L90.1209 34H85.0089L94.4409 8.44ZM100.489 24.136L96.9609 13.588L93.2889 24.136H100.489ZM115.28 34V8.44H132.452V12.796H120.248V19.384H130.4V23.416H120.248V34H115.28Z" fill="white"/>
<path d="M20.9015 18.1667C22.27 18.1667 23.3806 19.2773 23.3806 20.6458V27.3736C23.3806 29.0647 22.7088 30.6866 21.513 31.8824C20.3172 33.0782 18.6954 33.75 17.0042 33.75C15.3131 33.75 13.6912 33.0782 12.4954 31.8824C11.2996 30.6866 10.6278 29.0647 10.6278 27.3736V20.6458C10.6278 19.2773 11.7371 18.1667 13.107 18.1667H20.9015ZM10.1022 18.1667C9.6064 18.7645 9.28765 19.5125 9.2239 20.3342L9.20973 20.6458V27.3736C9.20973 28.5735 9.48173 29.7097 9.96623 30.724C9.12654 30.9486 8.24644 30.9771 7.39398 30.8073C6.54152 30.6375 5.73953 30.2739 5.05004 29.7446C4.36054 29.2153 3.80201 28.5346 3.41764 27.755C3.03326 26.9754 2.83333 26.1178 2.83331 25.2486V20.6458C2.83334 20.0236 3.06731 19.4242 3.48878 18.9665C3.91025 18.5088 4.4884 18.2264 5.10848 18.1752L5.31248 18.1667H10.1022ZM23.9062 18.1667H28.6875C30.056 18.1667 31.1666 19.2773 31.1666 20.6458V25.25C31.1668 26.1186 30.9673 26.9757 30.5835 27.755C30.1997 28.5342 29.6419 29.2148 28.9532 29.7442C28.2645 30.2735 27.4633 30.6375 26.6115 30.8078C25.7597 30.9782 24.8802 30.9505 24.0408 30.7268C24.4658 29.8372 24.7265 28.8568 24.7846 27.8198L24.7973 27.3736V20.6458C24.7973 19.7037 24.463 18.8396 23.9048 18.1667H23.9062ZM17 8.25C18.1271 8.25 19.2082 8.69777 20.0052 9.4948C20.8022 10.2918 21.25 11.3728 21.25 12.5C21.25 13.6272 20.8022 14.7082 20.0052 15.5052C19.2082 16.3022 18.1271 16.75 17 16.75C15.8728 16.75 14.7918 16.3022 13.9948 15.5052C13.1977 14.7082 12.75 13.6272 12.75 12.5C12.75 11.3728 13.1977 10.2918 13.9948 9.4948C14.7918 8.69777 15.8728 8.25 17 8.25ZM26.2083 9.66667C27.1476 9.66667 28.0485 10.0398 28.7126 10.704C29.3768 11.3682 29.75 12.269 29.75 13.2083C29.75 14.1476 29.3768 15.0485 28.7126 15.7127C28.0485 16.3769 27.1476 16.75 26.2083 16.75C25.269 16.75 24.3682 16.3769 23.704 15.7127C23.0398 15.0485 22.6666 14.1476 22.6666 13.2083C22.6666 12.269 23.0398 11.3682 23.704 10.704C24.3682 10.0398 25.269 9.66667 26.2083 9.66667ZM7.79165 9.66667C8.73095 9.66667 9.63179 10.0398 10.296 10.704C10.9602 11.3682 11.3333 12.269 11.3333 13.2083C11.3333 14.1476 10.9602 15.0485 10.296 15.7127C9.63179 16.3769 8.73095 16.75 7.79165 16.75C6.85234 16.75 5.9515 16.3769 5.28731 15.7127C4.62312 15.0485 4.24998 14.1476 4.24998 13.2083C4.24998 12.269 4.62312 11.3682 5.28731 10.704C5.9515 10.0398 6.85234 9.66667 7.79165 9.66667Z" fill="white"/>
</svg>
