<svg width="177" height="56" viewBox="0 0 177 56" fill="none" xmlns="http://www.w3.org/2000/svg">
<path d="M59.552 45V10.92H66.176V45H59.552ZM76.0224 27.72C76.0224 25.64 76.3904 23.592 77.1264 21.576C77.8944 19.56 78.9984 17.736 80.4384 16.104C81.8784 14.472 83.6384 13.176 85.7184 12.216C87.7984 11.224 90.1664 10.728 92.8224 10.728C95.9264 10.728 98.6304 11.416 100.934 12.792C103.238 14.168 104.95 15.96 106.07 18.168L100.982 21.672C100.406 20.392 99.6544 19.384 98.7264 18.648C97.7984 17.912 96.7904 17.384 95.7024 17.064C94.6464 16.744 93.6224 16.584 92.6304 16.584C90.9664 16.584 89.5104 16.92 88.2624 17.592C87.0464 18.264 86.0224 19.144 85.1904 20.232C84.3584 21.32 83.7344 22.536 83.3184 23.88C82.9344 25.224 82.7424 26.568 82.7424 27.912C82.7424 29.928 83.1584 31.816 83.9904 33.576C84.8224 35.304 85.9904 36.712 87.4944 37.8C88.9984 38.888 90.7424 39.432 92.7264 39.432C93.7504 39.432 94.8064 39.256 95.8944 38.904C97.0144 38.552 98.0384 37.992 98.9664 37.224C99.8944 36.456 100.614 35.464 101.126 34.248L106.55 37.368C105.846 39.064 104.742 40.504 103.238 41.688C101.734 42.84 100.038 43.736 98.1504 44.376C96.2624 44.984 94.3904 45.288 92.5344 45.288C90.1024 45.288 87.8784 44.792 85.8624 43.8C83.8784 42.776 82.1504 41.432 80.6784 39.768C79.2064 38.072 78.0544 36.184 77.2224 34.104C76.4224 31.992 76.0224 29.864 76.0224 27.72ZM124.588 10.92H131.308L143.836 45H137.02L133.852 36.504H121.948L118.828 45H112.012L124.588 10.92ZM132.652 31.848L127.948 17.784L123.052 31.848H132.652ZM152.374 45V10.92H175.27V16.728H158.998V25.512H172.534V30.888H158.998V45H152.374Z" fill="black"/>
<path d="M24.59 24.6667C26.2 24.6667 27.5066 25.9733 27.5066 27.5833V35.4983C27.5066 37.4879 26.7163 39.396 25.3095 40.8028C23.9026 42.2096 21.9945 43 20.005 43C18.0154 43 16.1073 42.2096 14.7005 40.8028C13.2937 39.396 12.5033 37.4879 12.5033 35.4983V27.5833C12.5033 25.9733 13.8083 24.6667 15.42 24.6667H24.59ZM11.885 24.6667C11.3016 25.37 10.9266 26.25 10.8516 27.2167L10.835 27.5833V35.4983C10.835 36.91 11.155 38.2467 11.725 39.44C10.7371 39.7043 9.7017 39.7378 8.6988 39.538C7.69591 39.3382 6.75239 38.9105 5.94123 38.2878C5.13006 37.6651 4.47296 36.8642 4.02075 35.947C3.56854 35.0298 3.33333 34.0209 3.33331 32.9983V27.5833C3.33334 26.8513 3.6086 26.1461 4.10445 25.6077C4.60029 25.0692 5.28048 24.7369 6.00998 24.6767L6.24998 24.6667H11.885ZM28.125 24.6667H33.75C35.36 24.6667 36.6666 25.9733 36.6666 27.5833V33C36.6669 34.0219 36.4322 35.0303 35.9806 35.947C35.5291 36.8638 34.8729 37.6645 34.0626 38.2873C33.2523 38.91 32.3097 39.3382 31.3076 39.5386C30.3056 39.7391 29.2708 39.7065 28.2833 39.4433C28.7833 38.3967 29.09 37.2433 29.1583 36.0233L29.1733 35.4983V27.5833C29.1733 26.475 28.78 25.4583 28.1233 24.6667H28.125ZM20 13C21.3261 13 22.5978 13.5268 23.5355 14.4645C24.4732 15.4021 25 16.6739 25 18C25 19.3261 24.4732 20.5979 23.5355 21.5355C22.5978 22.4732 21.3261 23 20 23C18.6739 23 17.4021 22.4732 16.4644 21.5355C15.5268 20.5979 15 19.3261 15 18C15 16.6739 15.5268 15.4021 16.4644 14.4645C17.4021 13.5268 18.6739 13 20 13ZM30.8333 14.6667C31.9384 14.6667 32.9982 15.1057 33.7796 15.8871C34.561 16.6685 35 17.7283 35 18.8333C35 19.9384 34.561 20.9982 33.7796 21.7796C32.9982 22.561 31.9384 23 30.8333 23C29.7282 23 28.6684 22.561 27.887 21.7796C27.1056 20.9982 26.6666 19.9384 26.6666 18.8333C26.6666 17.7283 27.1056 16.6685 27.887 15.8871C28.6684 15.1057 29.7282 14.6667 30.8333 14.6667ZM9.16665 14.6667C10.2717 14.6667 11.3315 15.1057 12.1129 15.8871C12.8943 16.6685 13.3333 17.7283 13.3333 18.8333C13.3333 19.9384 12.8943 20.9982 12.1129 21.7796C11.3315 22.561 10.2717 23 9.16665 23C8.06158 23 7.00177 22.561 6.22037 21.7796C5.43897 20.9982 4.99998 19.9384 4.99998 18.8333C4.99998 17.7283 5.43897 16.6685 6.22037 15.8871C7.00177 15.1057 8.06158 14.6667 9.16665 14.6667Z" fill="#23286B"/>
</svg>
