<svg width="34" height="30" viewBox="0 0 34 30" fill="none" xmlns="http://www.w3.org/2000/svg">
<path d="M7.35315 14.178L7.35253 14.186L7.35216 14.194L7.3355 14.5606L7.33498 14.572V14.5833V22.4983C7.33498 23.7641 7.57915 24.9735 8.02226 26.0815C7.28603 26.205 6.53181 26.1941 5.79649 26.0477C4.86879 25.8628 3.99603 25.4671 3.24568 24.8912C2.49533 24.3152 1.88751 23.5743 1.46921 22.7259C1.0509 21.8775 0.833332 20.9443 0.833313 19.9983V14.5834C0.833313 14.5833 0.833313 14.5833 0.833313 14.5833C0.83334 13.9768 1.06141 13.3925 1.47225 12.9464C1.8809 12.5026 2.44066 12.2278 3.04144 12.1758L3.2604 12.1667H7.94603C7.61752 12.7727 7.40935 13.4536 7.35315 14.178ZM33.1666 20V20.0001C33.1669 20.9454 32.9497 21.8781 32.5321 22.7261C32.1144 23.5741 31.5074 24.3148 30.7579 24.8908C30.0084 25.4669 29.1365 25.8629 28.2096 26.0484C27.4752 26.1953 26.7219 26.2068 25.9863 26.0843C26.365 25.1375 26.5978 24.1183 26.6575 23.0513L26.6577 23.0513L26.6581 23.0376L26.6731 22.5126L26.6733 22.5055V22.4983V14.5833C26.6733 13.7091 26.4523 12.8855 26.0624 12.1667H30.75C32.0838 12.1667 33.1666 13.2495 33.1666 14.5833V20ZM21.59 12.1667C22.9238 12.1667 24.0066 13.2495 24.0066 14.5833V22.4983C24.0066 24.3553 23.269 26.1362 21.9559 27.4493C20.6428 28.7623 18.8619 29.5 17.005 29.5C15.148 29.5 13.3671 28.7623 12.0541 27.4493C10.741 26.1362 10.0033 24.3553 10.0033 22.4983V14.5833C10.0033 13.2493 11.0846 12.1667 12.42 12.1667H21.59ZM17 0.5C18.1935 0.5 19.338 0.974106 20.182 1.81802C21.0259 2.66193 21.5 3.80653 21.5 5C21.5 6.19347 21.0259 7.33807 20.182 8.18198C19.338 9.02589 18.1935 9.5 17 9.5C15.8065 9.5 14.6619 9.02589 13.818 8.18198C12.9741 7.33807 12.5 6.19347 12.5 5C12.5 3.80653 12.9741 2.66193 13.818 1.81802C14.6619 0.974106 15.8065 0.5 17 0.5ZM27.8333 2.16667C28.8058 2.16667 29.7384 2.55297 30.426 3.24061C31.1137 3.92824 31.5 4.86087 31.5 5.83333C31.5 6.80579 31.1137 7.73842 30.426 8.42606C29.7384 9.11369 28.8058 9.5 27.8333 9.5C26.8609 9.5 25.9282 9.11369 25.2406 8.42606C24.553 7.73842 24.1666 6.80579 24.1666 5.83333C24.1666 4.86087 24.553 3.92824 25.2406 3.24061C25.9282 2.55297 26.8609 2.16667 27.8333 2.16667ZM6.16665 2.16667C7.13911 2.16667 8.07174 2.55297 8.75937 3.24061C9.44701 3.92824 9.83331 4.86087 9.83331 5.83333C9.83331 6.80579 9.44701 7.73842 8.75937 8.42606C8.07174 9.11369 7.13911 9.5 6.16665 9.5C5.19419 9.5 4.26155 9.11369 3.57392 8.42606C2.88629 7.73842 2.49998 6.80579 2.49998 5.83333C2.49998 4.86087 2.88629 3.92824 3.57392 3.24061C4.26155 2.55297 5.19419 2.16667 6.16665 2.16667Z" fill="#1D72D8" stroke="#1D72D8"/>
</svg>
