<svg width="86" height="86" viewBox="0 0 86 86" fill="none" xmlns="http://www.w3.org/2000/svg">
<path fill-rule="evenodd" clip-rule="evenodd" d="M43 47.6806C46.8745 47.6806 50.2361 45.4577 51.8726 42.2134C52.3174 41.3339 52.6352 40.3713 52.8011 39.3648C52.889 38.8372 52.9332 38.2949 52.9332 37.7476C52.9332 33.5408 50.314 29.9398 46.6204 28.4936C45.4967 28.0538 44.275 27.8145 42.9998 27.8145C41.7196 27.8145 40.4981 28.0538 39.3745 28.4936C35.6806 29.9398 33.0667 33.5408 33.0667 37.7476C33.0667 38.2949 33.1108 38.8372 33.1985 39.3648C33.3599 40.3713 33.6774 41.3339 34.1267 42.2134C35.7639 45.4577 39.1206 47.6806 43 47.6806Z" fill="#FFDCD5"/>
<path fill-rule="evenodd" clip-rule="evenodd" d="M55.0538 39.6581C58.4739 39.6581 61.4396 37.6939 62.8809 34.8355C63.4823 33.6483 63.8194 32.3095 63.8194 30.8926C63.8194 26.0506 59.8958 22.1272 55.0538 22.1272C51.0423 22.1272 47.6663 24.8192 46.6205 28.4935C50.3142 29.9398 52.9333 33.5408 52.9333 37.7476C52.9333 38.2949 52.8891 38.8372 52.8013 39.3648C53.5195 39.5553 54.2767 39.6581 55.0538 39.6581Z" fill="#FFD0C7"/>
<path fill-rule="evenodd" clip-rule="evenodd" d="M33.0669 37.7476C33.0669 33.5408 35.681 29.9398 39.3748 28.4935C38.3338 24.8192 34.9528 22.1272 30.9414 22.1272C26.1044 22.1272 22.181 26.0506 22.181 30.8926C22.181 32.3096 22.5179 33.6483 23.114 34.8355C24.5555 37.6939 27.5212 39.6581 30.9414 39.6581C31.7229 39.6581 32.4754 39.5555 33.1987 39.3648C33.1109 38.8372 33.0669 38.2949 33.0669 37.7476Z" fill="#FFD0C7"/>
<path fill-rule="evenodd" clip-rule="evenodd" d="M46.6206 28.4936C47.6663 24.8192 51.0424 22.1272 55.0538 22.1272C59.8957 22.1272 63.8194 26.0506 63.8194 30.8927C63.8194 32.3096 63.4823 33.6483 62.881 34.8356C65.9056 37.1809 67.8599 40.8502 67.8599 44.9495V49.9233C67.8599 52.1318 66.052 53.9445 63.8387 53.9445H57.5117V59.3141C57.5117 61.8207 55.4593 63.8728 52.9528 63.8728H33.0425C30.5359 63.8728 28.4887 61.8207 28.4887 59.3141V53.9445H22.1564C19.9481 53.9445 18.1403 52.1318 18.1403 49.9233V44.9495C18.1403 40.8502 20.0896 37.1809 23.114 34.8356C22.5179 33.6483 22.181 32.3095 22.181 30.8927C22.181 26.0506 26.1044 22.1272 30.9414 22.1272C34.9528 22.1272 38.3338 24.8192 39.3747 28.4936C40.4983 28.0538 41.7197 27.8145 43 27.8145C44.2752 27.8143 45.4967 28.0538 46.6206 28.4936ZM69.9706 74.4216L74.4656 69.9314C76.156 68.236 76.156 65.4705 74.4656 63.7801L71.6221 60.9364C73.6058 57.7799 75.0862 54.2719 75.9414 50.5243H79.9525C82.3467 50.5243 84.3061 48.5652 84.3061 46.1758V39.8241C84.3061 37.43 82.3467 35.4755 79.9525 35.4755H75.9562C75.1005 31.7036 73.6205 28.1759 71.6221 25.0001L74.4656 22.1564C76.156 20.4658 76.156 17.7004 74.4656 16.0049L69.9706 11.5146C68.28 9.82416 65.5145 9.82416 63.8238 11.5146L60.9754 14.3583C57.775 12.3454 54.2082 10.8503 50.4021 10V6.04251C50.4021 3.64845 48.4477 1.69397 46.0538 1.69397H39.7019C37.3079 1.69397 35.3534 3.64845 35.3534 6.04251V10.0639C31.6057 10.9334 28.0928 12.4236 24.9412 14.427L22.1171 11.603C20.4216 9.90764 17.6562 9.90764 15.9658 11.603L11.4708 16.0929C9.78032 17.7834 9.78032 20.5538 11.4708 22.2443L14.334 25.1075C12.3699 28.254 10.9087 31.7474 10.0684 35.4755H6.04268C3.64845 35.4755 1.69397 37.43 1.69397 39.8241V46.1758C1.69397 48.5652 3.64829 50.5243 6.04268 50.5243H10.0832C10.9385 54.2719 12.4139 57.7799 14.4023 60.9364L11.5588 63.7801C9.86817 65.4705 9.86817 68.236 11.5588 69.9314L16.0489 74.4216C17.7394 76.112 20.5097 76.112 22.2004 74.4216L25.0441 71.5779C28.2052 73.5665 31.7184 75.0469 35.4757 75.9021V79.9525C35.4757 82.3467 37.43 84.3059 39.8242 84.3059H46.1758C48.5652 84.3059 50.5243 82.3465 50.5243 79.9525V75.9068C54.2865 75.0518 57.8093 73.5713 60.9755 71.5779L63.8239 74.4216C65.5145 76.1122 68.28 76.1122 69.9706 74.4216Z" fill="url(#paint0_linear)"/>
<path fill-rule="evenodd" clip-rule="evenodd" d="M28.4885 53.6808C28.4885 49.0294 30.7019 44.8762 34.1269 42.2134C33.6774 41.3339 33.36 40.3713 33.1987 39.3648C32.4754 39.5553 31.7229 39.6581 30.9414 39.6581C27.5212 39.6581 24.5555 37.6939 23.114 34.8356C20.0896 37.1809 18.1403 40.8502 18.1403 44.9495V49.9234C18.1403 52.1318 19.9482 53.9445 22.1565 53.9445H28.4887V53.6808H28.4885Z" fill="#DAE6FF"/>
<path fill-rule="evenodd" clip-rule="evenodd" d="M33.0425 63.8729H52.9529C55.4593 63.8729 57.5117 61.8208 57.5117 59.3142V53.9446V53.6809C57.5117 49.0295 55.298 44.8763 51.8728 42.2135C50.2363 45.4578 46.8747 47.6807 43.0002 47.6807C39.1208 47.6807 35.7641 45.4578 34.1271 42.2135C30.702 44.8763 28.4887 49.0295 28.4887 53.6809V53.9446V59.3142C28.4885 61.8208 30.5359 63.8729 33.0425 63.8729Z" fill="#1D72D8"/>
<path fill-rule="evenodd" clip-rule="evenodd" d="M63.8387 53.9445C66.0522 53.9445 67.8599 52.1318 67.8599 49.9234V44.9495C67.8599 40.8502 65.9054 37.1809 62.881 34.8356C61.4396 37.6939 58.4741 39.6581 55.0538 39.6581C54.2768 39.6581 53.5196 39.5555 52.8013 39.3648C52.6354 40.3713 52.3176 41.3339 51.8728 42.2134C55.2982 44.8762 57.5117 49.0294 57.5117 53.6808V53.9445H63.8387Z" fill="#DAE6FF"/>
<path d="M43.0049 62.1788H43C42.0645 62.1788 41.3086 62.9372 41.3086 63.8728C41.3086 64.8084 42.0693 65.5668 43.0049 65.5668C43.9405 65.5668 44.6989 64.8084 44.6989 63.8728C44.6987 62.9372 43.9405 62.1788 43.0049 62.1788Z" fill="#23286B"/>
<defs>
<linearGradient id="paint0_linear" x1="0.0839905" y1="44.2598" x2="84.3203" y2="43" gradientUnits="userSpaceOnUse">
<stop stop-color="#1D72D8"/>
<stop offset="1" stop-color="#23286B"/>
</linearGradient>
</defs>
</svg>
